# xmcd CD database file
#
# Track frame offsets:
#	150
#	12637
#	25850
#	41490
#	53940
#	68820
#	82832
#	104442
#	117955
#	131215
#	144912
#	156347
#	171375
#	187987
#
# Disc length: 2761 seconds
#
# Revision: 2
# Processed by: cddbd v1.5.1PL0 Copyright (c) Steve Scherf et al.
# Submitted via: CDex 1.51
#
DISCID=bf0ac70e
DTITLE=Green, Peter - The Robert Johnson Songbook
DYEAR=1998
DGENRE=Blues
TTITLE0=When You Got A Good Friend
TTITLE1=32-20 Blues
TTITLE2=Phonograph Blues
TTITLE3=Last Fair Deal Gone Down
TTITLE4=Stop Breakin'n Down Blues
TTITLE5=Walkin' Blues
TTITLE6=Love In Vain Blues
TTITLE7=Ramblin' On My Mind
TTITLE8=Stones In My Passway
TTITLE9=Me And The Devil Blues
TTITLE10=Honeymoon Blues
TTITLE11=I Believe I'll Dust My Broom
TTITLE12=If I Had Possession Over Judgement Day
TTITLE13=Sweet Home Chicago
EXTD=Artisan Record Label YEAR: 1998
EXTT0=
EXTT1=
EXTT2=
EXTT3=
EXTT4=
EXTT5=
EXTT6=
EXTT7=
EXTT8=
EXTT9=
EXTT10=
EXTT11=
EXTT12=
EXTT13=
PLAYORDER=
